<?xml version='1.0' encoding='iso-8859-1'?>
<svg version="1.1" xmlns="http://www.w3.org/2000/svg" viewBox="0 0 511 511" xmlns:xlink="http://www.w3.org/1999/xlink" enable-background="new 0 0 511 511">
  <g>
    <path d="m103.5,248c-4.142,0-7.5,3.358-7.5,7.5 0,4.687-3.813,8.5-8.5,8.5s-8.5-3.813-8.5-8.5 3.813-8.5 8.5-8.5c4.142,0 7.5-3.358 7.5-7.5s-3.358-7.5-7.5-7.5c-12.958,0-23.5,10.542-23.5,23.5s10.542,23.5 23.5,23.5 23.5-10.542 23.5-23.5c0-4.142-3.358-7.5-7.5-7.5z"/>
    <path d="m423.5,264c-4.687,0-8.5-3.813-8.5-8.5s3.813-8.5 8.5-8.5c4.142,0 7.5-3.358 7.5-7.5s-3.358-7.5-7.5-7.5c-12.958,0-23.5,10.542-23.5,23.5s10.542,23.5 23.5,23.5 23.5-10.542 23.5-23.5c0-4.142-3.358-7.5-7.5-7.5s-7.5,3.358-7.5,7.5c0,4.687-3.813,8.5-8.5,8.5z"/>
    <path d="m255.5,263c17.617,0 32.5,9.388 32.5,20.5s-14.883,20.5-32.5,20.5-32.5-9.388-32.5-20.5c0-4.142-3.358-7.5-7.5-7.5s-7.5,3.358-7.5,7.5c0,17.995 17.05,32.462 40,35.076v8.924c0,4.142 3.358,7.5 7.5,7.5s7.5-3.358 7.5-7.5v-8.924c22.95-2.614 40-17.081 40-35.076 0-19.907-20.864-35.5-47.5-35.5-17.617,0-32.5-9.388-32.5-20.5s14.883-20.5 32.5-20.5 32.5,9.388 32.5,20.5c0,4.142 3.358,7.5 7.5,7.5s7.5-3.358 7.5-7.5c0-17.995-17.05-32.462-40-35.076v-8.924c0-4.142-3.358-7.5-7.5-7.5s-7.5,3.358-7.5,7.5v8.924c-22.95,2.614-40,17.081-40,35.076 0,19.907 20.864,35.5 47.5,35.5z"/>
    <path d="m495.5,112h-480c-8.547,0-15.5,6.953-15.5,15.5v256c0,8.547 6.953,15.5 15.5,15.5h480c8.547,0 15.5-6.953 15.5-15.5v-256c0-8.547-6.953-15.5-15.5-15.5zm.5,271.5c0,0.276-0.224,0.5-0.5,0.5h-480c-0.276,0-0.5-0.224-0.5-0.5v-256c0-0.276 0.224-0.5 0.5-0.5h480c0.276,0 0.5,0.224 0.5,0.5v256z"/>
    <path d="m471.5,192c-22.332,0-40.5-18.168-40.5-40.5 0-4.142-3.358-7.5-7.5-7.5h-336c-4.142,0-7.5,3.358-7.5,7.5 0,22.332-18.168,40.5-40.5,40.5-4.142,0-7.5,3.358-7.5,7.5v112c0,4.142 3.358,7.5 7.5,7.5 22.332,0 40.5,18.168 40.5,40.5 0,4.142 3.358,7.5 7.5,7.5h108.274c0.008,0 0.015,0.001 0.023,0.001s0.016-0.001 0.023-0.001h119.36c0.008,0 0.015,0.001 0.023,0.001s0.015-0.001 0.023-0.001h108.274c4.142,0 7.5-3.358 7.5-7.5 0-22.332 18.168-40.5 40.5-40.5 4.142,0 7.5-3.358 7.5-7.5v-112c0-4.142-3.358-7.5-7.5-7.5zm-103.5,63.5c0,39.426-20.981,76.212-54.873,96.5h-115.254c-33.892-20.288-54.873-57.074-54.873-96.5s20.981-76.212 54.873-96.5h115.253c33.893,20.288 54.874,57.074 54.874,96.5zm-321,49.005v-98.01c24.618-3.338 44.157-22.877 47.495-47.495h77.86c-27.796,23.993-44.355,59.202-44.355,96.5s16.559,72.507 44.355,96.5h-77.86c-3.338-24.618-22.877-44.157-47.495-47.495zm417,0c-24.618,3.338-44.157,22.877-47.495,47.495h-77.86c27.796-23.993 44.355-59.202 44.355-96.5s-16.559-72.507-44.355-96.5h77.86c3.338,24.618 22.877,44.157 47.495,47.495v98.01z"/>
  </g>
</svg>
